<svg width="32" height="32" viewBox="0 0 32 32" fill="none" xmlns="http://www.w3.org/2000/svg">
<path d="M17.8857 16L26.276 7.60933C26.4034 7.48634 26.505 7.33921 26.5748 7.17654C26.6447 7.01387 26.6815 6.83891 26.683 6.66187C26.6846 6.48483 26.6509 6.30926 26.5838 6.14539C26.5168 5.98153 26.4178 5.83266 26.2926 5.70747C26.1674 5.58228 26.0185 5.48328 25.8547 5.41624C25.6908 5.3492 25.5152 5.31546 25.3382 5.317C25.1611 5.31854 24.9862 5.35532 24.8235 5.4252C24.6608 5.49508 24.5137 5.59665 24.3907 5.724L16 14.1143L7.60971 5.724C7.35875 5.47855 7.02112 5.34197 6.67009 5.3439C6.31906 5.34584 5.98295 5.48613 5.73471 5.73432C5.48646 5.98252 5.34611 6.31861 5.34412 6.66964C5.34212 7.02067 5.47864 7.35833 5.72405 7.60933L14.1147 16L5.72405 24.3907C5.59797 24.514 5.49761 24.6611 5.42877 24.8234C5.35993 24.9858 5.32399 25.1602 5.32302 25.3365C5.32205 25.5129 5.35607 25.6877 5.42311 25.8508C5.49016 26.0139 5.5889 26.1621 5.71361 26.2868C5.83832 26.4115 5.98652 26.5102 6.14964 26.5772C6.31277 26.6442 6.48756 26.6782 6.66391 26.6772C6.84026 26.6762 7.01466 26.6402 7.17701 26.5714C7.33935 26.5025 7.48643 26.4021 7.60971 26.276L16 17.8857L24.3907 26.276C24.651 26.5363 24.9924 26.6667 25.3334 26.6667C25.6744 26.6667 26.016 26.5363 26.276 26.276C26.526 26.026 26.6664 25.6869 26.6664 25.3333C26.6664 24.9798 26.526 24.6407 26.276 24.3907L17.8857 16Z" fill="#EDF2F4"/>
</svg>
