<svg width="130" height="22" viewBox="0 0 130 22" fill="none" xmlns="http://www.w3.org/2000/svg">
<path d="M3.0828 1.47268L0.962148 1.21741V0H7.08848L9.42513 8.44334L9.97493 10.7407L10.4462 8.44334L12.7632 0H18.8306V1.21741L16.6903 1.47268L18.2612 20.483L130 20.699V21.8772H13.5879V20.699L15.3158 20.5027L14.4519 4.61439L14.0788 1.02105L13.3523 4.04495L10.5051 13.9806H8.42371L5.51763 4.55548L4.51621 1.02105L4.22167 4.61439L3.47552 17.2205L5.45872 17.4168V18.595H0V17.4168L1.6494 17.2205L3.0828 1.47268Z" fill="#EDF2F4"/>
<path d="M25.7346 18.811C24.0066 18.811 22.7172 18.307 21.8663 17.299C21.0285 16.278 20.6096 14.8904 20.6096 13.1363C20.6096 11.9581 20.8256 10.9371 21.2576 10.0731C21.7027 9.20913 22.3245 8.54807 23.123 8.0899C23.9215 7.63173 24.8444 7.40265 25.8916 7.40265C27.2007 7.40265 28.2086 7.74955 28.9155 8.44334C29.6224 9.12405 29.9889 10.0993 30.0151 11.3691C30.0151 12.233 29.9628 12.8745 29.858 13.2934H23.4764C23.5288 14.4846 23.8103 15.414 24.3208 16.0816C24.8313 16.7361 25.5578 17.0634 26.5003 17.0634C27.0109 17.0634 27.5345 16.9783 28.0712 16.8081C28.621 16.638 29.053 16.4351 29.3672 16.1994L29.858 17.2794C29.5046 17.659 28.9286 18.0125 28.1301 18.3397C27.3447 18.6539 26.5462 18.811 25.7346 18.811ZM27.2661 12.1152C27.2923 11.7487 27.3054 11.4672 27.3054 11.2709C27.3054 9.52985 26.7229 8.65933 25.5578 8.65933C24.9164 8.65933 24.419 8.9146 24.0655 9.42513C23.7121 9.93565 23.5157 10.8323 23.4764 12.1152H27.2661Z" fill="#EDF2F4"/>
<path d="M33.9188 5.8907C33.4475 5.8907 33.0745 5.75325 32.7996 5.47835C32.5247 5.20346 32.3872 4.85001 32.3872 4.41803C32.3872 3.92059 32.5443 3.50824 32.8585 3.18098C33.1726 2.85372 33.5915 2.69009 34.1152 2.69009C34.6388 2.69009 35.038 2.83408 35.3129 3.12207C35.5878 3.39697 35.7253 3.74387 35.7253 4.16276C35.7253 4.68638 35.5682 5.10528 35.254 5.41945C34.9398 5.73362 34.5013 5.8907 33.9384 5.8907H33.9188ZM32.8781 9.54294L31.484 9.16986V7.85427L35.0773 7.42229H35.1166L35.6664 7.815V17.2598L36.982 17.4168V18.595H31.5036V17.4168L32.8781 17.2401V9.54294Z" fill="#EDF2F4"/>
<path d="M43.3376 18.811C41.6097 18.811 40.3203 18.307 39.4694 17.299C38.6316 16.278 38.2127 14.8904 38.2127 13.1363C38.2127 11.9581 38.4287 10.9371 38.8607 10.0731C39.3058 9.20913 39.9276 8.54807 40.7261 8.0899C41.5246 7.63173 42.4475 7.40265 43.4947 7.40265C44.8038 7.40265 45.8117 7.74955 46.5186 8.44334C47.2255 9.12405 47.592 10.0993 47.6182 11.3691C47.6182 12.233 47.5658 12.8745 47.4611 13.2934H41.0795C41.1319 14.4846 41.4133 15.414 41.9239 16.0816C42.4344 16.7361 43.1609 17.0634 44.1034 17.0634C44.6139 17.0634 45.1376 16.9783 45.6743 16.8081C46.2241 16.638 46.6561 16.4351 46.9702 16.1994L47.4611 17.2794C47.1077 17.659 46.5317 18.0125 45.7332 18.3397C44.9478 18.6539 44.1492 18.811 43.3376 18.811ZM44.8692 12.1152C44.8954 11.7487 44.9085 11.4672 44.9085 11.2709C44.9085 9.52985 44.326 8.65933 43.1609 8.65933C42.5195 8.65933 42.022 8.9146 41.6686 9.42513C41.3152 9.93565 41.1188 10.8323 41.0795 12.1152H44.8692Z" fill="#EDF2F4"/>
<path d="M49.1852 17.4365L50.4812 17.2794V9.54294L49.2245 9.1895V7.83464L52.268 7.42229H52.3269L52.8178 7.815V8.24699L52.7589 9.83748H52.8178C52.9095 9.57567 53.1255 9.25495 53.4658 8.87533C53.8062 8.48261 54.2316 8.14226 54.7421 7.85427C55.2657 7.55319 55.8286 7.40265 56.4308 7.40265C56.7188 7.40265 56.9675 7.44192 57.1769 7.52047V10.4658C56.7842 10.1909 56.3064 10.0535 55.7435 10.0535C54.7879 10.0535 53.9567 10.3087 53.2498 10.8193V17.2598L55.5275 17.4365V18.595H49.1852V17.4365Z" fill="#EDF2F4"/>
<path d="M57.1908 0H63.16V1.21741L61.491 1.47268L64.4167 10.2695L64.9861 12.2527L65.477 10.2498L68.226 1.47268L66.6748 1.21741V0H71.4266V1.21741L70.1699 1.47268L65.6537 18.7324H63.3171L58.3689 1.47268L57.1908 1.21741V0Z" fill="#EDF2F4"/>
<path d="M74.2448 5.8907C73.7735 5.8907 73.4005 5.75325 73.1256 5.47835C72.8507 5.20346 72.7132 4.85001 72.7132 4.41803C72.7132 3.92059 72.8703 3.50824 73.1845 3.18098C73.4986 2.85372 73.9175 2.69009 74.4412 2.69009C74.9648 2.69009 75.364 2.83408 75.6389 3.12207C75.9138 3.39697 76.0513 3.74387 76.0513 4.16276C76.0513 4.68638 75.8942 5.10528 75.58 5.41945C75.2659 5.73362 74.8273 5.8907 74.2644 5.8907H74.2448ZM73.2041 9.54294L71.81 9.16986V7.85427L75.4033 7.42229H75.4426L75.9924 7.815V17.2598L77.308 17.4168V18.595H71.8296V17.4168L73.2041 17.2401V9.54294Z" fill="#EDF2F4"/>
<path d="M80.895 16.9849C80.9997 17.1419 81.2354 17.2925 81.6019 17.4365C81.9815 17.5674 82.3611 17.6328 82.7408 17.6328C83.356 17.6328 83.8142 17.5085 84.1153 17.2598C84.4294 16.998 84.5865 16.6576 84.5865 16.2387C84.5865 15.8067 84.3967 15.4598 84.0171 15.198C83.6375 14.9231 82.996 14.5893 82.0928 14.1966L81.543 13.961C80.6397 13.5813 79.9656 13.1232 79.5205 12.5865C79.0754 12.0498 78.8529 11.356 78.8529 10.5051C78.8529 9.91602 79.0296 9.3924 79.3831 8.93423C79.7365 8.46298 80.2339 8.09645 80.8754 7.83464C81.5168 7.57283 82.2564 7.44192 83.0942 7.44192C83.7094 7.44192 84.2331 7.48119 84.6651 7.55974C85.1101 7.63828 85.5748 7.743 86.0592 7.87391C86.321 7.96554 86.5174 8.0179 86.6483 8.03099V10.6033H85.097L84.6454 9.11096C84.5669 8.98005 84.3902 8.86224 84.1153 8.75751C83.8404 8.65279 83.5262 8.60043 83.1727 8.60043C82.636 8.60043 82.204 8.71824 81.8768 8.95387C81.5626 9.17641 81.4055 9.49058 81.4055 9.89638C81.4055 10.2629 81.5168 10.5705 81.7393 10.8193C81.9619 11.0549 82.204 11.2382 82.4659 11.3691C82.7277 11.5 83.212 11.716 83.9189 12.017C84.6258 12.3181 85.2083 12.6061 85.6665 12.881C86.1377 13.1559 86.5239 13.5159 86.825 13.961C87.1392 14.393 87.2962 14.9231 87.2962 15.5515C87.2962 16.5202 86.9166 17.3056 86.1574 17.9077C85.3981 18.5099 84.3051 18.811 82.8782 18.811C82.2106 18.811 81.6084 18.7521 81.0717 18.6343C80.5481 18.5164 79.9394 18.3594 79.2456 18.163L78.8136 18.0256V15.4336H80.4434L80.895 16.9849Z" fill="#EDF2F4"/>
<path d="M91.2343 5.8907C90.763 5.8907 90.3899 5.75325 90.115 5.47835C89.8401 5.20346 89.7027 4.85001 89.7027 4.41803C89.7027 3.92059 89.8598 3.50824 90.1739 3.18098C90.4881 2.85372 90.907 2.69009 91.4306 2.69009C91.9542 2.69009 92.3535 2.83408 92.6284 3.12207C92.9033 3.39697 93.0407 3.74387 93.0407 4.16276C93.0407 4.68638 92.8837 5.10528 92.5695 5.41945C92.2553 5.73362 91.8168 5.8907 91.2539 5.8907H91.2343ZM90.1936 9.54294L88.7994 9.16986V7.85427L92.3928 7.42229H92.432L92.9818 7.815V17.2598L94.2974 17.4168V18.595H88.8191V17.4168L90.1936 17.2401V9.54294Z" fill="#EDF2F4"/>
<path d="M95.7049 13.1559C95.7049 11.9254 95.9471 10.8782 96.4314 10.0142C96.9289 9.15023 97.5899 8.50225 98.4146 8.07026C99.2393 7.62519 100.136 7.40265 101.105 7.40265C102.754 7.40265 104.024 7.91318 104.914 8.93423C105.817 9.9422 106.269 11.3167 106.269 13.0577C106.269 14.3013 106.02 15.3616 105.523 16.2387C105.038 17.1027 104.384 17.7507 103.559 18.1826C102.748 18.6015 101.851 18.811 100.869 18.811C99.2328 18.811 97.963 18.307 97.0598 17.299C96.1565 16.278 95.7049 14.8969 95.7049 13.1559ZM101.026 17.5347C102.505 17.5347 103.245 16.1078 103.245 13.2541C103.245 11.7618 103.068 10.6294 102.715 9.85711C102.361 9.07168 101.785 8.67897 100.987 8.67897C99.4684 8.67897 98.7092 10.1058 98.7092 12.9595C98.7092 14.4519 98.8924 15.5907 99.259 16.3762C99.6386 17.1485 100.228 17.5347 101.026 17.5347Z" fill="#EDF2F4"/>
<path d="M109.154 9.54294L107.897 9.1895V7.83464L111.156 7.42229H111.215L111.706 7.815V8.58079L111.687 9.05205C112.145 8.62006 112.74 8.24699 113.473 7.93281C114.206 7.61864 114.946 7.46156 115.692 7.46156C116.491 7.46156 117.112 7.6121 117.558 7.91318C118.016 8.20117 118.343 8.65934 118.539 9.28768C118.736 9.91602 118.834 10.7669 118.834 11.8403V17.2598L120.032 17.4168V18.595H114.966V17.4168L116.026 17.2598V11.8403C116.026 11.1596 115.98 10.6294 115.889 10.2498C115.797 9.85711 115.627 9.57567 115.378 9.40549C115.142 9.22222 114.802 9.13059 114.357 9.13059C113.611 9.13059 112.812 9.45131 111.961 10.0927V17.2401L113.14 17.4168V18.595H108.015V17.4168L109.154 17.2401V9.54294Z" fill="#EDF2F4"/>
<path d="M123.599 16.9849C123.703 17.1419 123.939 17.2925 124.306 17.4365C124.685 17.5674 125.065 17.6328 125.445 17.6328C126.06 17.6328 126.518 17.5085 126.819 17.2598C127.133 16.998 127.29 16.6576 127.29 16.2387C127.29 15.8067 127.1 15.4598 126.721 15.198C126.341 14.9231 125.7 14.5893 124.797 14.1966L124.247 13.961C123.344 13.5813 122.669 13.1232 122.224 12.5865C121.779 12.0498 121.557 11.356 121.557 10.5051C121.557 9.91602 121.733 9.3924 122.087 8.93423C122.44 8.46298 122.938 8.09645 123.579 7.83464C124.221 7.57283 124.96 7.44192 125.798 7.44192C126.413 7.44192 126.937 7.48119 127.369 7.55974C127.814 7.63828 128.279 7.743 128.763 7.87391C129.025 7.96554 129.221 8.0179 129.352 8.03099V10.6033H127.801L127.349 9.11096C127.271 8.98005 127.094 8.86224 126.819 8.75751C126.544 8.65279 126.23 8.60043 125.877 8.60043C125.34 8.60043 124.908 8.71824 124.581 8.95387C124.266 9.17641 124.109 9.49058 124.109 9.89638C124.109 10.2629 124.221 10.5705 124.443 10.8193C124.666 11.0549 124.908 11.2382 125.17 11.3691C125.431 11.5 125.916 11.716 126.623 12.017C127.33 12.3181 127.912 12.6061 128.37 12.881C128.842 13.1559 129.228 13.5159 129.529 13.961C129.843 14.393 130 14.9231 130 15.5515C130 16.5202 129.62 17.3056 128.861 17.9077C128.102 18.5099 127.009 18.811 125.582 18.811C124.914 18.811 124.312 18.7521 123.775 18.6343C123.252 18.5164 122.643 18.3594 121.949 18.163L121.517 18.0256V15.4336H123.147L123.599 16.9849Z" fill="#EDF2F4"/>
</svg>
