<svg width="32" height="32" viewBox="0 0 32 32" fill="none" xmlns="http://www.w3.org/2000/svg">
<path d="M4 8C4 7.64638 4.14048 7.30724 4.39052 7.05719C4.64057 6.80714 4.97971 6.66667 5.33333 6.66667H26.6667C27.0203 6.66667 27.3594 6.80714 27.6095 7.05719C27.8595 7.30724 28 7.64638 28 8C28 8.35362 27.8595 8.69276 27.6095 8.94281C27.3594 9.19286 27.0203 9.33333 26.6667 9.33333H5.33333C4.97971 9.33333 4.64057 9.19286 4.39052 8.94281C4.14048 8.69276 4 8.35362 4 8ZM4 16C4 15.6464 4.14048 15.3072 4.39052 15.0572C4.64057 14.8071 4.97971 14.6667 5.33333 14.6667H26.6667C27.0203 14.6667 27.3594 14.8071 27.6095 15.0572C27.8595 15.3072 28 15.6464 28 16C28 16.3536 27.8595 16.6928 27.6095 16.9428C27.3594 17.1929 27.0203 17.3333 26.6667 17.3333H5.33333C4.97971 17.3333 4.64057 17.1929 4.39052 16.9428C4.14048 16.6928 4 16.3536 4 16ZM5.33333 22.6667C4.97971 22.6667 4.64057 22.8071 4.39052 23.0572C4.14048 23.3072 4 23.6464 4 24C4 24.3536 4.14048 24.6928 4.39052 24.9428C4.64057 25.1929 4.97971 25.3333 5.33333 25.3333H26.6667C27.0203 25.3333 27.3594 25.1929 27.6095 24.9428C27.8595 24.6928 28 24.3536 28 24C28 23.6464 27.8595 23.3072 27.6095 23.0572C27.3594 22.8071 27.0203 22.6667 26.6667 22.6667H5.33333Z" fill="#EDF2F4"/>
</svg>
